<?xml version="1.0" encoding="UTF-8" standalone="no"?>
<svg
   viewBox="0 0 44 44"
   width="44"
   height="44"
   version="1.1"
   id="svg4"
   xmlns="http://www.w3.org/2000/svg">
  <defs
     id="defs8" />
  <path
     style="fill:#8c9eff"
     d="M 38,10 C 38,10 33.415,6.412 28,6 L 27.512,6.976 C 32.408,8.174 34.654,9.891 37,12 32.955,9.935 28.961,8 22,8 15.039,8 11.045,9.935 7,12 9.346,9.891 12.018,7.985 16.488,6.976 L 16,6 c -5.681,0.537 -10,4 -10,4 0,0 -5.121,7.425 -6,22 5.162,5.953 13,6 13,6 l 1.639,-2.185 C 11.857,34.848 8.715,33.121 6,30 c 3.238,2.45 8.125,5 16,5 7.875,0 12.762,-2.55 16,-5 -2.715,3.121 -5.857,4.848 -8.639,5.815 L 31,38 c 0,0 7.838,-0.047 13,-6 C 43.121,17.425 38,10 38,10 Z M 15.5,28 C 13.567,28 12,26.209 12,24 c 0,-2.209 1.567,-4 3.5,-4 1.933,0 3.5,1.791 3.5,4 0,2.209 -1.567,4 -3.5,4 z m 13,0 C 26.567,28 25,26.209 25,24 c 0,-2.209 1.567,-4 3.5,-4 1.933,0 3.5,1.791 3.5,4 0,2.209 -1.567,4 -3.5,4 z"
     id="path2" />
</svg>
