<?xml version="1.0" encoding="UTF-8" standalone="no"?>
<svg
   version="1.1"
   id="Layer_1"
   x="0px"
   y="0px"
   viewBox="0 0 41.005001 41.005001"
   xml:space="preserve"
   width="41.005001"
   height="41.005001"
   xmlns="http://www.w3.org/2000/svg"><defs
   id="defs103" />
<path
   style="fill:#103262"
   d="m 40.255,20.0495 -6.81,-3.967 v 11.594 H 41 v -6.331 c 0,-0.534 -0.284,-1.027 -0.745,-1.296 z"
   id="path2" />
<path
   style="fill:#0084d7"
   d="m 10,6.5025 h 10 v 9 H 10 Z"
   id="path4" />
<path
   style="fill:#33afec"
   d="m 20,6.5025 h 10 v 9 H 20 Z"
   id="path6" />
<path
   style="fill:#54daff"
   d="m 30,6.5025 h 10 v 9 H 30 Z"
   id="path8" />
<path
   style="fill:#027ad4"
   d="m 20,15.5025 h 10 v 9 H 20 Z"
   id="path10" />
<path
   style="fill:#0553a4"
   d="m 20,24.5025 h 10 v 9 H 20 Z"
   id="path12" />
<path
   style="fill:#25a2e5"
   d="m 30,15.5025 h 10 v 9 H 30 Z"
   id="path14" />
<path
   style="fill:#0262b8"
   d="m 30,24.5025 h 10 v 9 H 30 Z"
   id="path16" />
<g
   id="g62"
   transform="translate(-3,-3.4975)">
	<polygon
   style="opacity:0"
   points="43,37 43,24 28.99,32 13,24 13,37 "
   id="polygon18" />
	<polygon
   style="opacity:0.019"
   points="43,37 43,24.238 28.99,32.238 13,24.238 13,37 "
   id="polygon20" />
	<polygon
   style="opacity:0.0381"
   points="43,37 43,24.476 28.99,32.476 13,24.476 13,37 "
   id="polygon22" />
	<polygon
   style="opacity:0.0571"
   points="43,37 43,24.714 28.99,32.714 13,24.714 13,37 "
   id="polygon24" />
	<polygon
   style="opacity:0.0762"
   points="43,37 43,24.952 28.99,32.952 13,24.952 13,37 "
   id="polygon26" />
	<polygon
   style="opacity:0.0952"
   points="43,37 43,25.19 28.99,33.19 13,25.19 13,37 "
   id="polygon28" />
	<polygon
   style="opacity:0.1143"
   points="43,37 43,25.429 28.99,33.429 13,25.429 13,37 "
   id="polygon30" />
	<polygon
   style="opacity:0.1333"
   points="43,37 43,25.667 28.99,33.667 13,25.667 13,37 "
   id="polygon32" />
	<polygon
   style="opacity:0.1524"
   points="43,37 43,25.905 28.99,33.905 13,25.905 13,37 "
   id="polygon34" />
	<polygon
   style="opacity:0.1714"
   points="43,37 43,26.143 28.99,34.143 13,26.143 13,37 "
   id="polygon36" />
	<polygon
   style="opacity:0.1905"
   points="43,37 43,26.381 28.99,34.381 13,26.381 13,37 "
   id="polygon38" />
	<polygon
   style="opacity:0.2095"
   points="43,37 43,26.619 28.99,34.619 13,26.619 13,37 "
   id="polygon40" />
	<polygon
   style="opacity:0.2286"
   points="43,37 43,26.857 28.99,34.857 13,26.857 13,37 "
   id="polygon42" />
	<polygon
   style="opacity:0.2476"
   points="43,37 43,27.095 28.99,35.095 13,27.095 13,37 "
   id="polygon44" />
	<polygon
   style="opacity:0.2667"
   points="43,37 43,27.333 28.99,35.333 13,27.333 13,37 "
   id="polygon46" />
	<polygon
   style="opacity:0.2857"
   points="43,37 43,27.571 28.99,35.571 13,27.571 13,37 "
   id="polygon48" />
	<polygon
   style="opacity:0.3048"
   points="43,37 43,27.81 28.99,35.81 13,27.81 13,37 "
   id="polygon50" />
	<polygon
   style="opacity:0.3238"
   points="43,37 43,28.048 28.99,36.048 13,28.048 13,37 "
   id="polygon52" />
	<polygon
   style="opacity:0.3429"
   points="43,37 43,28.286 28.99,36.286 13,28.286 13,37 "
   id="polygon54" />
	<polygon
   style="opacity:0.3619"
   points="43,37 43,28.524 28.99,36.524 13,28.524 13,37 "
   id="polygon56" />
	<polygon
   style="opacity:0.381"
   points="43,37 43,28.762 28.99,36.762 13,28.762 13,37 "
   id="polygon58" />
	<polygon
   style="opacity:0.4"
   points="43,37 43,29 28.99,37 13,29 13,37 "
   id="polygon60" />
</g>
<linearGradient
   id="SVGID_1_"
   gradientUnits="userSpaceOnUse"
   x1="38.924801"
   y1="24.5574"
   x2="32.286098"
   y2="36.0242"
   gradientTransform="translate(-3,-3.4975)">
	<stop
   offset="0"
   style="stop-color:#31ABEC"
   id="stop64" />
	<stop
   offset="1"
   style="stop-color:#1582D5"
   id="stop66" />
</linearGradient>
<path
   style="fill:url(#SVGID_1_)"
   d="m 12.441,38.5025 h 26.563 c 1.104,0 1.999,-0.889 2,-1.994 C 41.007,31.9875 41,21.3455 41,21.3455 c 0,0 -0.007,0.222 -1.751,1.212 -1.744,0.99 -27.505,15.511 -27.505,15.511 0,0 0.234,0.434 0.697,0.434 z"
   id="path69" />
<linearGradient
   id="SVGID_2_"
   gradientUnits="userSpaceOnUse"
   x1="13.6648"
   y1="6.9914999"
   x2="41.2845"
   y2="9.0742998"
   gradientTransform="translate(-3,-3.4975)">
	<stop
   offset="0.0416"
   style="stop-color:#076DB4"
   id="stop71" />
	<stop
   offset="0.8501"
   style="stop-color:#0461AF"
   id="stop73" />
</linearGradient>
<path
   style="fill:url(#SVGID_2_)"
   d="M 40,6.5025 H 10 v -2 c 0,-1.105 0.895,-2 2,-2 h 26 c 1.105,0 2,0.895 2,2 z"
   id="path76" />
<linearGradient
   id="SVGID_3_"
   gradientUnits="userSpaceOnUse"
   x1="28.153"
   y1="33.217499"
   x2="23.6376"
   y2="41.100399"
   gradientTransform="translate(-3,-3.4975)">
	<stop
   offset="0"
   style="stop-color:#33ACEE"
   id="stop78" />
	<stop
   offset="1"
   style="stop-color:#1B8EDF"
   id="stop80" />
</linearGradient>
<path
   style="fill:url(#SVGID_3_)"
   d="m 10,21.5025 v 15 c 0,1.105 0.895,2 2,2 h 15 12.004 c 0.462,0 0.883,-0.162 1.221,-0.425 z"
   id="path83" />
<path
   style="opacity:0.05"
   d="M 18.319,9.5025 H 10 v 24 h 8.319 c 2.033,0 3.681,-1.648 3.681,-3.681 v -16.638 c 0,-2.033 -1.648,-3.681 -3.681,-3.681 z"
   id="path85" />
<path
   style="opacity:0.07"
   d="M 18.213,32.5025 H 10 V 9.8355 h 8.213 c 1.724,0 3.121,1.397 3.121,3.121 v 16.425 c -0.001,1.724 -1.398,3.121 -3.121,3.121 z"
   id="path87" />
<path
   style="opacity:0.09"
   d="M 18.106,31.5025 H 10 v -21.333 h 8.106 c 1.414,0 2.56,1.146 2.56,2.56 v 16.213 c 0.001,1.414 -1.146,2.56 -2.56,2.56 z"
   id="path89" />
<linearGradient
   id="SVGID_4_"
   gradientUnits="userSpaceOnUse"
   x1="3.5297"
   y1="14.5297"
   x2="22.4098"
   y2="33.409801"
   gradientTransform="translate(-3,-3.4975)">
	<stop
   offset="0"
   style="stop-color:#1784D8"
   id="stop91" />
	<stop
   offset="1"
   style="stop-color:#0864C5"
   id="stop93" />
</linearGradient>
<path
   style="fill:url(#SVGID_4_)"
   d="M 18,30.5025 H 2 c -1.105,0 -2,-0.895 -2,-2 v -16 c 0,-1.105 0.895,-2 2,-2 h 16 c 1.105,0 2,0.895 2,2 v 16 c 0,1.105 -0.895,2 -2,2 z"
   id="path96" />
<path
   style="fill:#ffffff"
   d="m 10,15.1935 c -3.111,0 -4.985,2.377 -4.985,5.309 0,2.932 1.867,5.309 4.985,5.309 3.119,0 4.985,-2.377 4.985,-5.308 0,-2.933 -1.874,-5.31 -4.985,-5.31 z m 0,8.826 c -1.765,0 -2.82,-1.574 -2.82,-3.516 0,-1.942 1.06,-3.516 2.82,-3.516 1.76,0 2.821,1.575 2.821,3.516 0,1.941 -1.057,3.516 -2.821,3.516 z"
   id="path98" />
</svg>
