<?xml version="1.0" encoding="UTF-8" standalone="no"?>
<svg
   version="1.1"
   width="252.897"
   height="252.897"
   viewBox="0 0 252.897 252.897"
   xml:space="preserve"
   id="svg8"
   xmlns="http://www.w3.org/2000/svg">
	<defs
   id="defs2">
	</defs>
	<g
   style="opacity:1;fill:none;fill-rule:nonzero;stroke:none;stroke-width:0;stroke-linecap:butt;stroke-linejoin:miter;stroke-miterlimit:10;stroke-dasharray:none"
   transform="matrix(2.81,0,0,2.81,0,-0.00188787)"
   id="g6">
		<path
   d="m 28.303,81.565 c 33.962,0 52.538,-28.138 52.538,-52.538 0,-0.799 0,-1.595 -0.054,-2.387 3.614,-2.614 6.733,-5.85 9.212,-9.558 -3.37,1.493 -6.945,2.473 -10.606,2.905 3.855,-2.308 6.74,-5.937 8.118,-10.213 -3.625,2.151 -7.59,3.667 -11.725,4.482 C 68.793,6.82 57.096,6.461 49.66,13.454 44.864,17.964 42.83,24.684 44.318,31.097 29.473,30.352 15.64,23.34 6.264,11.804 1.363,20.241 3.866,31.035 11.981,36.453 9.042,36.366 6.168,35.573 3.6,34.142 c 0,0.076 0,0.155 0,0.234 0.002,8.79 6.198,16.36 14.814,18.101 -2.718,0.741 -5.571,0.85 -8.338,0.317 2.419,7.522 9.351,12.675 17.251,12.823 -6.539,5.139 -14.616,7.928 -22.932,7.92 C 2.926,73.534 1.459,73.445 0,73.27 c 8.444,5.419 18.27,8.293 28.303,8.28"
   style="opacity:1;fill:#1da1f2;fill-rule:nonzero;stroke:none;stroke-width:1;stroke-linecap:butt;stroke-linejoin:miter;stroke-miterlimit:10;stroke-dasharray:none"
   stroke-linecap="round"
   id="path4" />
	</g>
</svg>
